<svg xmlns="http://www.w3.org/2000/svg" xmlns:xlink="http://www.w3.org/1999/xlink" preserveAspectRatio="xMidYMid meet" version="1.0" viewBox="0.0 0.2 548.2 500.0" zoomAndPan="magnify" style="fill: rgb(0, 0, 0);" original_string_length="21589"><g id="__id6_sayr1ny09"><path d="M411.2,6.9c1.6-0.2,4-2.4,6.4-1.2c0.4,0,1.2,2.1,1.7,2.3c2.2,0.9,1.2-1.8,2.3-0.6c0.5,0.3,0.9,0.7,1.2,1.2 c0.8,1.9,1.4,3.8,1.7,5.8h2.9c0-2.3,0-3.2,1.7-4c1.4,1.3,2.9,2.2,4.7,2.9c-1.2,3.5,0,7,4.7,7c1.8-2.8,4.8-4.5,8.1-4.7 c1.3,1.7,3.3,1.8,6.4,1.7c0.6,0.9,1,1.9,1.2,2.9c2.4,0,4.8-0.4,7.1-1.1c0.3-0.8,0.7-1.6,1.2-2.3c2.4,1.3,6.7-2.2,9.3-2.9 c3.7-1,5.8,0.9,8.7,1.2c0.5,1.4,1.1,2.7,1.7,4c1.4,0,2.8,0.4,4,1.2c2-3.8,10.1-15.4,15.1-13.4c1.5,0.8,0.4-0.2,1.2,1.2 c1.5,2.1,0.8,4.2,0.6,7l5.2,0.6c0.3,2.1,0.8,1.9,1.2,4c0.8-0.1,1.6-0.3,2.3-0.6c0.4,1,0,0.6,0.6,1.2c-0.3,1.9-0.3,3.9,0,5.8 c-1,0.7-2.2,1.1-3.5,1.2c0.2,3.1-0.6,6.1-2.3,8.7c4.5,0.1,9,0.7,13.4,1.7c0.6,0.9,1,1.9,1.2,2.9c-1.2,1-2,2.5-2.3,4 c2.2,1.2,4,2.3,4.7,5.2c-1.3,1.1-2,2.7-3.5,3.5c-0.6-0.4-0.6-0.4-1.7-0.6c0,2.4-0.4,4,1.7,5.2c-1.6,3.9-1.8,8.2-0.6,12.1l-1.4,7 h-1.7c-1.2,3-3.8,5.2-7,5.8c0.2,4.5,0.7,7,0.6,11h2.9c1.5,1.7,2.5,1,2.9,4c-0.6,0.5,0,0-0.6,0.6h-1.7c0.6,2.7,0.8,5.4,0.6,8.1h1.7 c0.5,1.8,2.4,3.8,1.7,4.7c-0.7,0.9-2.6,1.2-4,1.7c-0.3,2.4-0.9,4.7-1.7,7c1,0.9,1.6,2.1,1.7,3.5c1,0,2,0.2,2.9,0.6 c-2.3,4.3-5.3,3.2-5.2,10.4c1.1,1.1,1.7,2.5,1.7,4h2.9c-1.1,7.8-8.5,4.3-13.9,5.2v0.6c0.5,0.6,0.2,0,0.6,1.2 c0.8,0.1,1.6,0.3,2.3,0.6c-0.8,1.6-1.2,3.4-1.2,5.2c0.8,1.5,0,0.6,1.7,1.2c0.9-1.2,2.1-2,3.5-2.3v1.2c1,1.1,1,1.5,1.2,3.5 c2,0.1,3.9,0.5,5.8,1.2c0.2,2.3,0.2,4.6,0,7h2.3c0,2.4-1,3.1-0.6,4c0.5,1.8,1.1,0.7,1.7,1.7c1.8,2.7-0.6,3.4,4,3.5 c1.1-2,3-3.5,5.2-4c-0.1-1.7-0.1-3.5,0-5.2c2.1,0.7,4.2,1.1,6.4,1.2c0.2,1.2,0,1.1,0.6,1.7c1.4,2.4,3.4,4.4,5.8,5.8 c-0.5,1-0.5,0.7,0,1.7c2,1.5,4.1,2.9,6.4,4c-1.3,4,0.6,8.1,0.6,11.6h-2.3c-0.8,2.2-2.3,2.8-2.9,5.2c2,1.3,0,8.1-3.5,8.7 c-1.4-1.9-3.5-3.1-5.8-3.5c-0.3,1.3-0.9,2.5-1.7,3.5c-0.6-0.4-0.6-0.4-1.7-0.6c-1,2.3-2.3,1.7-2.9,4.7c2.3,2.1,0,3.2-0.6,6.4 l3.5,0.6c0.7,10.8,10,10.8,9.3,23.8c-2.2,1-3.2,1.5-3.5,4.7c0.7,2.1,1.3,4.2,1.7,6.4c-0.6,1.3-0.4,1.6-1.7,2.3 c-0.6-0.4-0.5-0.4-1.7-0.6v1.7c-1.5,0.8-2.1,2-3.5,2.9c0.7,1.1,1.1,1,1.7,2.3c-1.4,1.7-1.5,5.8-3.5,7c-1.1,0.5-2.3,0.7-3.5,0.6v1.7 h-2.3c-0.3,0.9-0.5,1.9-0.6,2.9c0.4,0.6,0.4,0.5,0.6,1.7h1.7c0.7,2.1,1.4,1.9,1.7,4.7c-1.7,1-3.5,1.6-4,4c1.9,1.5,1.6,3.1,1.7,5.2 c4.9,1.9,8.3,1.5,8.1,8.7c-1.3,0.9-2.3,2.1-2.9,3.5c1.4,1.6,2.2,3.7,2.3,5.8c-1,0.6-1.6,1.7-1.7,2.9c1,0.8,1.7,1.8,2.3,2.9 c3.5,0,4,0.3,5.8,1.7c-1.1,1.8-1.9,3.8-2.3,5.8c2.1,1.3,2.9,2.2,2.9,5.8c1.2,1.8,0,4-0.6,5.8c-2.8,0.8-4,0.2-4,4 c3.2,0.6,5.2,1.7,5.2,5.8c0.7,0.9,0.4,0.3,0,1.2c-0.7,1.9-0.5,1.5-2.9,1.7c1,3.5,0.8,7.2-0.4,10.6c-2.8,0-2.2,1.3-5.8,1.7 c0,3.9-3,7.2-7,7.6c0.6,8.1-3.8,10.2-5.8,18l0.6,3.5c-0.3,0.8-2.6,2.1-2.9,2.9l1.2,8.7c-0.6,3.3-1.4,6.6-2.3,9.9 c-2.3,0-2.1,0.4-4.7,1.2c0,1.7,0.6,1.2,0,2.3c-0.6,0.4-0.5,0.4-1.7,0.6c0.3-2.4,0.7-1.9,1.2-4c-0.9-0.3-1.9-0.5-2.9-0.6v1.2 c-1.3,2.1,0.6,3.5-0.6,5.8l-2.3,1.2l-0.6,5.8c-3-0.4-3-1.7-5.8-2.3c0,2.6-0.3,5.1-1.2,7.6h-0.6v-0.6c-0.3-1.3-0.5-2.7-0.6-4h-1.7 c-0.9,0.4-6.7-1.1-10.4-1.2c-0.6,2.3-0.7,2.7-3.5,2.9c-0.4-1.2-1.2-2.2-2.3-2.9v0.6h-0.6c0.4,2,1.3,2.9-0.6,4 c-0.7,0.5-1,0.4-2.3,0.6v-1.2c-0.8-1.5,0-2.5,0.6-4.7c-3.4,0.4-3.6,1.6-7.6,1.7c-1.2-1.9-3.1-3.3-5.2-4c0,2.4,0,2.1-1.7,2.9 c-0.7,0.5-2.1,0-2.3,0l-2.9,4c-2.4,0-1.8,0.2-4,1.2v-0.6c-1.4-1.9-2.1-6.3-4-7.6v0.6c-0.5,0.9-0.7,1.9-0.6,2.9c1,1.1,1,1.5,1.2,3.5 h-0.6v0.6c-5.1-2.5-9.1,2.8-13.9,2.9V424c0.4-0.6,0.4-0.6,0.6-1.7c-2-0.3-3.9-0.9-5.8-1.7c-0.6,1.1-1.4,2-2.3,2.9 c-0.9-1.1-0.5-0.8-2.3-1.2c-0.1,2.7-0.1,5.4,0,8.1c-2.6,0-7.4-1.3-8.1-1.2s-1.2,2.1-2.9,1.7c-1.7-0.3-3.7-2.9-6.4-3.5v1.7 c-1.8,1.4-4.1,2-6.4,1.7c0.3,1.6,0.7,3.1,1.2,4.7l-1.7,0.6c-1.2,0-1.9,0.3-2.3-2.3c0.5-1.1,0-1.1,0-2.9h-2.8c-0.5,4.2-1.2,3.5,0,7.6 c-4,0-4.6,2.5-6.4,4.7h-0.6v-0.6c-2.7-1-2.7-3.4-5.2-4.7c-3.4,1.7-5.4-2.4-9.3-0.6c-1.1-2.3-2.1-1.7-2.3-5.2 c-2.5,0.5-5.2,0.3-7.6-0.6v-1.7c2.4-0.1,4.7-0.5,7-1.2c0.4-0.7,0.4-1,0.6-2.3h-1.7c-0.1-1.3-0.1-2.7,0-4c-0.9-0.3-1.9-0.5-2.9-0.6 c-0.4-0.3,0-0.8-1.2-0.6v0.6c-1.3,2-0.6,3.6-2.9,4.7c-0.9-1.4-1.3-1.3-1.7-3.5c1.5-1.4,0.8-2,0.6-4.7c-1.9-0.8-3.8-1.2-5.8-1.2v1.2 c1.1,1.2,1.2,2.2,1.2,4.7c-1.8,2-3.8,3.7-6.1,5.1c0.4,1.2-0.4,1.8,0,2.9l1.7,0.6c0.9,1.8,1.3,3.8,1.2,5.8c-1.9,1.3-1.9,2.1-5.2,2.3 c-0.5-0.6-3.6-2.5-3.5-3.5v1.2c-1.9,1.5-3.4,3.6-5.2,5.2c-3.4-0.6-4.7-1.5-4.7-5.8l4.7-3.5c3.4,0,3.5,0.9,5.8,1.7 c1.9-2.9,4.5-2.8,4.7-7.6c-1.9-1-1.7-2.6-2.3-4.7c-0.9,0.6-1.7,2.1-2.3,1.2c-1.4-1.3-4-9.3-5.8-10.4c-1.4,2.1-3,2.8-3.5,5.8 c1.2,1.9,1.7,4.2,1.2,6.4c-1.4,5.5-6.5,7.2-11,8.1c-2.7-2.4-5.6-4.5-8.7-6.4c0.3-1.9,0.3-3.9,0-5.8c-2.7-0.5-2.8-1.4-5.8-1.7v1.2 c1.5,1.3,1.8,2.9,1.7,5.8c1.2,0.2,1.1,0,1.7,0.6c0.6,0.6,0.4,1,0.6,2.3c-0.7,0.3-1.5,0.5-2.3,0.6c-0.8-0.9-0.4-0.6-1.7-1.2 c-0.5,2.8-2.2,4-5.2,4c-2.1,1.3-6.4-1.3-7.6-2.9c-0.6-1-0.6-3.7-1.2-4.7c-0.6,0.4-0.6,0.4-1.7,0.6c0.6-3.5,3-5,4-8.1 c-1.2-0.7-1.1-0.4-1.7-1.7c1-1.1,1.1-0.4,0.6-1.7c-0.5-1.3,0.2-0.4-1.2-1.2c-3.7-0.5-7.4-0.5-11,0c-0.5,1.7-0.2,1.6-1.7,2.3v-0.6 c-2.1-1.4-1.3-3.3-4-4c0,1.5,0.8,1.3-1.2,2.3v-0.6c-0.4-0.5-0.8-1.8-1.2-2.3c-2.4,1.4-3.5-1.3-4.7-2.9c-2.2,0.7-3.9,2.5-4.7,4.7 c-1-0.4-0.6,0-1.2-0.6c-1.5-0.8-0.9-0.2-1.2-2.3c1.2-0.7,1.1-0.4,1.7-1.7l-1.7-0.6c-1.8-1.1-3.8-1.6-5.8-1.7c-1.2,2.3-2.9,4.4-4,6.4 l-0.6,2.9c-0.6,0.6-2.8,0.7-3.5,1.2c0.4,0.6,0.4,0.6,0.6,1.7c-1.8,0-0.8-1-1.7,0.6c3.4,0.5,4.5,2.8,4.7,6.4c-1.1,0.6-2,1.4-2.9,2.3 c-2.5,0-4-1.6-5.8-1.2c-1.7,0.4-2.6,2.8-5.8,1.2c-1.1-0.6-0.8-2.8-1.7-3.5h-2.9c-0.8-0.4-2.7-3.7-4.7-2.9l-1.2,1.7 c-1.1,0.6-3.1,0-3.5,0c-2.8,1.5-0.3,3.2-5.8,3.5v1.7c1.5,0,0.7-0.2,2.3,0.6l-0.6,1.7h-1.7c-0.9-2.3-1.9-4-2.9-6.4h-1.7 c0,2.6,0,3.2-1.7,4c-1.2,0.1-2.3,0.1-3.5,0c-0.2-1.2,0-1.1-0.6-1.7c-0.6-0.6-0.6-0.4-1.7-0.6c-0.7,2.8-1.7,3.5-5.2,3.5 c-0.6-0.8-1.4-1.4-2.3-1.7v1.2c0.4,0.7,0.4,1,0.6,2.3c-1.3,1.2-2.9,1.8-4.7,1.7c-0.6-0.4,0,0-1.2-0.6v-1.2c-0.5-1.1-0.7-2.3-0.6-3.5 c-2.8-0.1-5.6-0.9-8.1-2.3c-0.3-0.7-0.5-1.5-0.6-2.3c1.2-0.6,2-1.6,2.3-2.9c-1.7-1.1-1.7-1.7-1.7-4.7l1.7-0.6 c0.9-0.5,1.9-0.7,2.9-0.6c1,1.8,2.7,3.3,4.7,4c1-3.4,3.5-3.2,4-7c-2.7,0.6-4.4,2.4-6.4,1.2c-0.5-0.7-0.4-1-0.6-2.3h-1.7v-1.7h-2.9 v2.3c-1.4,0.9-3,1.3-4.7,1.2c-0.6-1.6-1.6-3-2.9-4c-0.7,0.5-1,0.4-2.3,0.6v-2.9c-3.1-0.8-6-3.2-8.7-1.7c-1.7,1.1-2.9,2.7-3.5,4.7 c1,0.6,0,2.2-0.6,4.7h-2.3c0,3.4-0.9,3.7-1.2,7h3.5c0.8-2.1,2-2.2,2.9-4c-0.5-0.7-0.4-1-0.6-2.3c0.5-0.3,0.9-0.7,1.2-1.2 c1,0.4,0.6,0,1.2,0.6c2.9,1.6,0,1.5,1.2,4c0.3,0.6,1.9,1.5,2.3,2.3c3.6-2.2,3.6-5.7,9.3-5.8c0.6,1.3,1.4,2.4,2.3,3.5 c-0.4,1,0,0.6-0.6,1.2c-0.8,2.5-1.8,3-5.2,2.9c-2.1-1.4-1.1-0.5-2.9,0.6c-1.1,0-1.5-0.9-2.9-1.2c-0.3,2.6-0.8,3.3-2.9,4 c-2.8,1.8-3.3-1.1-4.7-2.3l-8.7,0.6c-2.1-0.5-2.2-1.8-4.7-1.2c0-3.4-1.2-3.5-1.7-6.4c-3.7,0-3.2-1.9-7.6-2.3 c-0.3,0.5-0.7,0.9-1.2,1.2c0.9,1.9,1.9,2.3,2.3,4.7c-0.9,0.6-0.5,0.6-1.7,1.2c-1.3,0.5-2.3-1-4-1.7c0,4.5-1.9,3.4-2.3,7.6 c1.3,2.1,2,4.5,2.3,7c-1.1,0.4-2.3,0.6-3.5,0.6c-0.9-0.5-1.9-0.9-2.9-1.2v-1.7h2.3l-0.6-2.9h-3c0.8,2,0.9,2.6-1.2,3.5 c-1.3,0-2.1,0-2.3-2.9c0.9-0.8,0.6-0.4,1.2-1.7c-3.4-1.2-2.6-8.1-8.7-8.7c-4.4,7.2-10.2,8.7-16.8,13.4c-1.8-2-7.4-2.1-9.3-2.3 c0-3.4-1.2-3.6-2.3-5.8c-3.8,0-7.5-0.8-11-2.3c-2.7-1.5,0.3-2.5-5.2-2.9v-1.7c-2,0-3.2-1.4-4.7-1.2c-0.9,0.6-1.9,1-2.9,1.2 c-0.4-1,0-0.6-0.6-1.2c0.7-1.9,1.2-1.3,1.7-3.5c-1.6-1-1.5-1.5-4-1.7c-0.9,1.3-0.8,1.4-2.9,1.7c-0.6-0.9-1-1.9-1.2-2.9 c1.1-0.9,0.8-0.5,1.2-2.3c-3.5-2.1-1.4-4.7-7.6-4.7v4c-1.7,1.7-4.1,2.3-6.4,1.7c-0.7-1.7-1.1-3.4-1.2-5.2c1.1-0.9,0.8-0.5,1.2-2.3 h-2.3c-0.4-1.1-0.6-2.3-0.6-3.5c1.5-0.8,1.3-0.3,1.7-2.3h-1.7c0.4-1.8,0.9-1.4-1.2-2.3c-1.1-0.5-2.3-0.7-3.5-0.6 c-0.5,1.7-0.2,1.6-1.7,2.3V392c-1.3-0.8-2.2-2.1-2.3-3.6c0.7-1.3,0.2-1.6,0-3.5c-3,0.3-5.9-0.1-8.7-1.2c-0.2-3.5-1.3-2.8-1.7-5.8 c3.5-1.5,1.6-6.7,1.2-9.3c2.6-1.3,2.7-3.4,6.4-4v-1.7c-3.9-1-7.4-3.2-9.9-6.4v-1.2c1.5-0.7,6.1-2.1,7-3.5c-1.2-0.7-1.7-2.2-1.2-3.5 c0.3-0.9,2.6-3.6,2.9-4.7c0.5-1.8-1-1.7-1.2-2.3c-0.2-0.6,0-7.6,0-7.6c0.8-0.8,1.8-1.4,2.9-1.7v-1.7c-1.2-0.2-1.1,0-1.7-0.6 c-0.2-1.9-0.2-3.9,0-5.8c-6.6-3.1-6.1-10.2-6.4-17.4c-1.4,0-2.7,0.2-4,0.6c-0.6-4.6-3.2-4-5.2-7c2.5-1.1,3.4-1.5,3.5-5.2 c-2.5-2.2-2.7-7.1-4.7-9.3c-1.1-1.3-2.5-0.6-3.5-2.3c-0.4-0.6-0.4-0.6-0.6-1.7H7.6v-2.4c3.5-2.8,6.2-6.4,8.1-10.4 c-1.3-0.3-2.3-1.1-2.9-2.3c2.1-1.1,3.5-3.3,3.4-5.7c-3.8-5,0-12.8-5.2-16.8c-0.6-0.4-0.6-0.4-1.7-0.6c0-2.5-0.2-4.5-0.6-7.6H7 c-0.7-3-2.1-3.5-2.9-6.4c2.3-1.2,2.5-2.1,2.3-5.8c-1.9-1.7-3.9-3.5-5.8-5.1L0,212.5c1.3-0.6,1.6-0.4,2.3-1.7 c1.5-3.7,2.3-7.6,2.3-11.6h2.3c1.5-2.4,4.1-4,7-4v-1.8c2.3-0.9,4-2.8,4.7-5.2H22v-2.3c-1.7-0.5-2.2-0.8-2.9-2.3c3-2.7,7-4.2,11-4 v-1.7l2.9-0.6c0.3-0.7,0.5-1.5,0.6-2.3l-1.3-0.7c-0.4-1.3,1.8-1.7,1.2-4c-0.4-1.6-2.2-2.7-1.7-4c1.3-1.3,2-1.7,4.7-1.7 c-0.5-3.4-0.9-3,0-5.8c-0.7-0.4-1.4-0.6-2.2-0.8c-1.1,1-0.4,1.1-1.7,0.6c-2.1-3,1.5-3.5,0-7c-0.2-0.6-2.5-0.8-1.7-3.5 c1.1-2.1,2-4.2,2.9-6.3c-1.3-0.7-1.8-2.2-2.9-2.9c-3.5-2.3-4.8-0.2-4.7-6.4c-0.1-1.2-0.1-2.3,0-3.5c-3.2-0.9-5.5-3.6-5.9-6.8 c-1.8,0-1.6,0.4-2.3,0c-0.6-0.9-1-1.9-1.2-2.9c1.7-0.8,3.1-5.7,3.5-7.6H18c-0.6-1.3-1.3-2.5-2.3-3.5c-0.2-3.6,1.4-14.3,4.5-15 c0.8,1.5,0,0.6,1.7,1.2c0.9-1.7,2.7-2.9,4.7-2.9l-0.6-2.9c1.8-0.5,3-2.2,2.9-4c-0.7-1.7-0.9-3.6-0.6-5.4c-1.3,0-1.6,0-2.3-0.6 c-1.7-0.9-3.3-2.1-4.7-3.5c1.5-0.8,0.6,0,1.2-1.7c-0.9-0.8-0.6-0.4-1.2-1.7c1.9-0.9,2.1-0.8,2.3-3.5h-2.2c0.2-3.7,0.5-7.4,1.2-11 c-0.9-0.3-1.9-0.5-2.9-0.6v-3.5c2-1.2,3.4-3,4-5.2c2.4,0.3,1.9,0.7,4,1.2c1.1-2.2,1.9-4.5,2.3-7h2.2c0.3-0.9,0.5-1.9,0.6-2.9 c-1-1.3-0.6-2.8-0.6-5.3c1.4-0.6,1.1-0.6,1.7-1.7c3.4,0,4-1.4,5.8-1.7c1.8-0.4,1.1,1.8,3.5,1.2c3.6-1,6.4-3.6,7.7-7.1 c-0.4-0.6-0.2,0-0.6-1.2h2.9c1,1.2,2.5,1.8,4,1.7c1.5-1.7,3.6-3,5.8-3.5c2,2.8,4.9,7.2,8.7,8.1c1.7,0.4,3-0.8,5.2,0 c0.4,0,1.9,1.7,2.3,1.7c1.3,0,2.5-1,4.7-1.2c0.2-1.2,0-1.1,0.6-1.7c0.6-0.6,0-0.2,1.2-0.6c4-2,9.4,2.3,13.4-0.6 c0.8-0.9,1.4-1.8,1.9-2.9L107,26c1.5-2.5,4.1-4.2,7-4.7c2.4,2.7,6-0.3,9.9,0.6c0,0,6.6,2.1,7,2.3l1.2,2.3c3.1,1.2,11.2-8.1,11-12.8 h-0.6v-0.4l-4-0.6c0-2.2,0.8-4.3,2.3-5.8c2.7,1.3,5.4-3,7.6-4c0.9,0.3,1.9,0.5,2.9,0.6v1.7h1.2c1.4,0.9,3,1.5,4.7,1.7 c0.2-1.2,0-1.1,0.6-1.7c2.2,1.3,7-1.1,9.3,0c2.3,1.1,1.5,4,3.5,5.2c1.1,0.5,2.3,0.7,3.5,0.6v1.7h1.7c0.6-2.3,1.2-3.2,4-3.5 c1.6,2.1,3.2,2.1,4,5.2h1.7v-1.7h1.2c3-2.7,7.6-2.4,10.3,0.6c1.1,1.3,1.8,2.9,1.9,4.7c1.8-0.2,3.5,0,5.2,0.6 c1.9-4.5,5.8-7.7,10.5-8.7c0.9,1.4,1.3,1.3,1.7,3.5c4.4-0.4,8.9-0.6,13.4-0.6c1.1,2.6,3.5,4.4,6.4,4.7v1.7c2.1-0.8,4.2-1.4,6.4-1.7 c0.5,1.4,0.6,0.9,1.2,2.3c-0.7,0.5-0.5,0.5-0.7,1.7l5.2-0.6c1.3,0.4,3,2.1,4.7,1.7c2.6-0.5,6.9-5.4,11-3.5c1.5,0.8,0.4-0.2,1.2,1.2 c0.8,1.4-0.2,4-0.6,6.4h0.6v0.6c3.3,0.5,6.6,0.7,9.9,0.6c0.5-0.2,0-1.5,1.2-1.7c2.4,1.4,4.9,2.5,7.6,3.5c1-2.8,3.4-4.9,6.4-5.3 c0.8,1.5,0.7,1.1,2.9,1.2c0.5,2.8,0.7,3.4,4,3.5v-2.2l5.2,0.6c0.6,2.5,1.6,3.3,4.7,3.5c0-5.8,2.5-13.4,8.1-13.9 c0.4-0.3,0-0.8,1.2-0.6v0.6c1.6,1.2,2.5,3.2,2.3,5.2c6.7-0.5,8.3,2.7,15.7,2.9c0.9-1.3,0.8-1.4,2.9-1.7c2.4,2.3,9.2,1.6,13.4,1.7 c-0.8-3.4,0.6-6.9,3.5-8.8c1.7-0.6,3.5-0.8,5.2-0.6c0.9,1.9,0.8,2.1,3.5,2.3c1.1-0.5,1.1,0,2.9,0c1.7-3.6,4.9-6.4,8.7-7.6 c1.2,2.2,2.5,4.4,4,6.4c2.7-0.5,5.5-0.3,8.1,0.6c0.9-2.8,5.2-8.3,8.7-8.7c1.7,1.7,1.7,1.3,4.7,1.2c0.9-4.6,4.3-8.4,8.8-9.8 C409.9,2.4,411.1,2.6,411.2,6.9 M530.2,384.3h2.3c0.3,0.6,0.7,1.2,1.2,1.7c-0.4,1,0,0.6-0.6,1.2c-0.7,1.9-0.5,1.5-2.9,1.7 C529.1,386.7,529.1,386.4,530.2,384.3 M524.4,393c1.9,0.9,2.1,0.8,2.3,3.5h-1.2c-0.6,0.4-0.6,0.4-1.7,0.6c-0.4-1.1-0.6-2.3-0.6-3.5 C524.3,393.2,523.8,393.5,524.4,393 M169.6,405.1c1.4,0.1,2.8,0.5,4,1.2c0.4,0.6,0.4,0.6,0.6,1.7c-1.5-0.3-3.1-0.5-4.7-0.6 L169.6,405.1z M515.7,405.7h2.1v2.3h-2.3L515.7,405.7z M262.5,412.6h1.2v1.2h-1.2V412.6z M262.5,413.8c0,2.1,0.2,2.7,1.7,3.5 c1.6-1.5,3.8-1.9,5.8-1.2v2.9c-0.9,0.6-1.9,1-2.9,1.2c-0.6-0.4,0,0-1.2-0.6v1.7c1.2,2-0.8,4.4-1.7,6.4h-0.6v-0.6 c-2.2-2.1-4.7-3.6-7.6-4.7l0.6-1.7c0.9-0.6,1.9-1,2.9-1.2c1.6,1.3,0.8,0.4,3.5,0v-1.7c-2.5,0.4-5-0.2-7-1.7c-0.4-0.7-0.4-1-0.6-2.3 c0.9-0.3,1.9-0.5,2.9-0.6C259.7,413.8,261.1,414,262.5,413.8 M516.9,418.5h-2.3l-0.6-1.7c0.7-0.5,1.5-0.9,2.3-1.2v0.6 C516.8,416.8,516.8,417.1,516.9,418.5 M337.4,420.8h-1.7v-3.5h1.2v0.6C337.4,418.7,337.6,419.8,337.4,420.8 M54.7,417.9h1.2v1.2 h-1.2V417.9z M284.1,417.9h1.2v1.2H284L284.1,417.9z M503,418.4h1.2v0.6h-0.6v0.6h-0.6L503,418.4z M146.5,420.2 c1.9,0.5,2.2,0.5,2.9,2.3c0.7,1.8,0.3,1.9,0,3.5h-1.3c-0.9,0.5-1.9,0.7-2.9,0.6c-0.5-0.8-1.1-1.6-1.7-2.3c0.6-2.5,1.4-2.7,2.9-4 M21.5,420.8h1.7c0.7,1,1.2,2.2,1.2,3.5h-1.2c-0.6,0.4-0.5,0.4-1.7,0.6c-0.5-0.6-0.9-1.3-1.3-2.1h0.6L21.5,420.8z M281.1,425.4v-3.5 c1.2-0.8,2.6-1.2,4-1.2c0.3,0.9,0.5,1.9,0.6,2.9l-1.2,0.6C283.5,425,282.3,425.4,281.1,425.4 M451.2,421.4c0.9,0.5,1.6,1.3,1.7,2.3 h-0.6c-0.6,0.4-0.6,0.4-1.7,0.6C450.3,422.5,450.4,423.1,451.2,421.4 M117.3,423.3h2.9v1.2c0.5,0.7,0.4,1,0.6,2.3l-1.7,0.6 c-0.7,0.4-0.6,0-2.3,0v-1.2C115.9,424.7,116.7,424.7,117.3,423.3L117.3,423.3z M164.4,424.5c-0.5,1.9,0.3,0.9-1.2,1.7 c-0.7-1.3-1-1.1-2.3-1.7v-0.6h0.6v-0.6C162.3,424,163.3,424.4,164.4,424.5L164.4,424.5z M455.9,423.3c2.3,0.6,2.7,0.7,2.9,3.5 c-1,0.7-2.2,1.2-3.5,1.2c-0.6-0.9-1-1.9-1.2-2.9c0.4-0.6,0.2,0,0.6-1.2C455.7,423.5,455.3,423.9,455.9,423.3L455.9,423.3z M271.8,423.9h1.2v0.6h-0.6v0.6C271.9,424.4,272.4,425,271.8,423.9L271.8,423.9z M501.2,424.4c1.5,0.8,0.6,0,1.2,1.7h-1.2V424.4z M168.4,425.6c0.9,0.8,0.6,0.4,1.2,1.7h-1.7L168.4,425.6z M468.7,425.6h1.2v1.2h-1.2V425.6z M505.9,426.2l1.7,0.6v0.6H507 c-0.6,0.4,0,0.2-1.2,0.6V426.2L505.9,426.2z M81.3,426.8c1.2,0.2,1.1,0,1.7,0.6c0.6,0.6,0.4,1,0.6,2.3h-0.6v0.6 c-1-0.4-0.6,0-1.2-0.6C80.2,428.6,80.8,428.4,81.3,426.8 M253.2,426.7c1.6,0.9,1.5,0.5,1.7,2.9c-0.7,0.3-1.5,0.5-2.3,0.6 c-0.3-0.5-0.7-0.9-1.2-1.2l0.6-1.7C253.1,426.9,252.6,427.3,253.2,426.7 M443.7,426.7c1.1,0.3,2.1,0.9,2.9,1.7c-0.4,1,0,0.6-0.6,1.2 c-0.5,1.3-0.5,0.8-1.2,1.7c-1-0.4-0.6,0-1.2-0.6C441.9,429.3,442.8,428.5,443.7,426.7 M110.9,427.9c1.5,0.8,0.6,0,1.2,1.7 C110.2,428.8,110.9,429.7,110.9,427.9 M341.5,429.7c-1.9-0.5-0.9,0.3-1.7-1.2h0.6v-0.6h1.2V429.7z M117.9,428.5h1.2 c0,3.4,2.1,3.6,2.3,8.7c-1.9,1.3-1.9,2.1-5.2,2.3c-1.7-1.8-2.8-1.6-2.9-5.2C115.6,433.1,117.3,431,117.9,428.5 M164.3,428.5l3.5,0.6 v1.2h-0.6c-0.6,0.4-0.6,0.4-1.7,0.6C164.3,429.2,164.3,430.2,164.3,428.5 M224.2,428.5h2.4c0.7,1,1.2,2.2,1.2,3.5 c-2.2,1.5-1.3,2.4-2.9,3.5v-0.6C223.4,433,223.2,430.5,224.2,428.5 M450.2,428.5c-0.5,1.9,0.3,0.9-1.2,1.7v-0.6 c-0.5-0.6-0.2,0-0.6-1.2H450.2z M473.4,428.5c2.3,0.6,2.7,0.7,2.9,3.5c-1,0.7-2.2,1.2-3.5,1.2c-1.1-1.7-0.9-0.2-2.3-1.2 c-0.4-0.6-0.4-0.5-0.6-1.7C471.2,429.9,472.4,429.3,473.4,428.5 M456,429h1.2v1.2H456L456,429z M501.9,429h3.5v0.6h0.4v1.2h-1.2 c-0.8,0.2-1.7,0-2.3-0.6c-0.5-0.6-0.2,0-0.6-1.2 M269.9,429.6c1.5,0.8,0.6,0,1.2,1.7C269.2,430.4,270,431.3,269.9,429.6 M237.6,430.8h1.1v1.2h-1.2L237.6,430.8z M454.2,430.8c2.4,0,3,0.4,4,1.7c1,1.5,1.4,3.4,1.2,5.2c-1.2,0.6-2.4,1.4-3.5,2.3 c-1.8-0.8-3.6-1.8-5.2-2.9c-2.6,2.8-7.1,4.6-7-2.3c1.4-0.8,2.7-1.8,4-1.2c1.4,0.6,1.7,1.1,3.5,1.7v-0.6 C452.5,433.6,453.4,432.3,454.2,430.8 M274.7,431.3c1.9,0.5,0.9-0.3,1.7,1.2l-1.7,0.6V431.3z M31.4,431.9c0.8,0.1,1.6,0.3,2.3,0.6 v1.2c-0.5,0.3-0.9,0.7-1.2,1.2l-1.7-0.6C30.8,433.4,31,432.6,31.4,431.9 M182.9,431.9c2.5,0,5.1,0.2,7.6,0.6 c1.8,3.2,2.6,6.8,2.3,10.4c-2.1,1.6-2.3,3.1-5.8,3.5c-4,2.5-10.2-5-12.1,0c0.5,1.1,0.2,0.7,0,2.3c-0.8,0.5-1.6,1.1-2.3,1.7 c-1-0.4-0.6,0-1.2-0.6c-2.3-0.8-2.4-1.5-2.3-4.7c0.9-0.6,1.9-1,2.9-1.2c0.8,0,1.6,0.2,2.3,0.6c1.3-3,3.7-2,4-6.4 c-1.9-0.6-1.9-0.6-2.3-2.9c0.5-0.6,0.2,0,0.6-1.2c4,0,4,0,6.4-2.3 M260.8,431.8c0.8,0.1,1.6,0.3,2.3,0.6v1.2 c-0.5,0.3-0.9,0.7-1.2,1.2l-1.7-0.6C260.2,433.3,260.4,432.5,260.8,431.8 M58.1,432.3h2.3c0.3,0.7,0.5,1.5,0.6,2.3 c-0.9,0.6-1.9,1-2.9,1.2C57,433.7,57,434.4,58.1,432.3 M125.4,432.3h2.3c1.3,2,2.3,4.1,2.9,6.4c-1,0.7-2.2,1.1-3.5,1.2 C126,437.5,124.3,435.6,125.4,432.3 M286.8,432.3h2.9c0.4,1,0,0.6,0.6,1.2c-0.4,1,0,0.6-0.6,1.2c-0.6,0.6-0.5,0.8-2.3,1.2 c-0.5-0.7-0.9-1.5-1.2-2.3C286.8,432.9,286.5,433.6,286.8,432.3 M354.8,432.4h2.3c0.6,0.9,1,1.9,1.2,2.9c-1,0.7-2.2,1.1-3.5,1.2 c-0.5-0.7-0.9-1.5-1.2-2.3h0.6L354.8,432.4z M107.4,432.9h3.5c1.4,2.1,2.9,4.5-0.6,5.8c-0.7,0.5-1,0.4-2.3,0.6 c-0.5-0.5-1.1-0.9-1.7-1.2C105.9,434.9,106,435.2,107.4,432.9 M149.2,438.1v-3.5c0.7-0.4,1.3-1,1.7-1.7c1.6,0.7,3,1.6,2.3,2.9 c-0.6,1.3-0.8,1.2-2.3,1.7C150.3,438,150.4,437.9,149.2,438.1 M293.3,432.9h2.9v1.2c0.4,0.6,0.4,0.5,0.6,1.7c-0.9,0.6-1.9,1-2.9,1.2 C292.9,435.9,292.7,434.3,293.3,432.9 M463.4,432.9h2.3c0.3,0.5,0.7,0.9,1.2,1.2c-0.4,1,0,0.6-0.6,1.2c-0.7,1.9-0.5,1.5-2.9,1.7 c-0.3-0.6-0.7-1.2-1.2-1.7L463.4,432.9z M219,433.5c-0.5,1.9,0.3,0.9-1.2,1.7v-0.6c-0.5-0.6-0.2,0-0.6-1.2H219z M238.7,437v-2.3 c3.3-0.5,6.3-2.2,8.1,1.2c0.4,0.6,0.4,0.6,0.6,1.7c-1,0.7-2.2,1.2-3.5,1.2C242.4,437.5,240.6,436.9,238.7,437 M271,433.6l3.5,1.2 v0.6h-0.6c-0.9,0.5-1.9,0.7-2.9,0.6C270.8,434.4,270.7,435,271,433.6 M487.1,438.2v-3.5c1-0.7,2.2-1.1,3.5-1.2v1.2 c0.5,0.7,0.4,1,0.6,2.3h-0.6v0.6L487.1,438.2z M362.8,434.7v2.3c-1.2-0.2-1.1,0-1.7-0.6c-0.6-0.6-0.2,0-0.6-1.2h0.6v-0.6H362.8z M227.4,439.4h1.7c0.6,0.9,1,1.9,1.2,2.9c-1.6,0.9-5.8,3-7,2.3c-1.4-0.4-2.6-1.2-3.5-2.3c-2.1,0.8-1.5,1.7-4,2.3 c-0.8,0.2-1.7,0-2.3-0.6c-1-1.1-1.1-1.8-1.2-4c1.3-1.1,3-1.7,4.7-1.7c1,1.5,1.1,1.5,3.5,1.7c0.8-2.2,2.1-2.6,3.5-4 c1,0.4,0.6,0,1.2,0.6C227.1,437.2,227.1,437.2,227.4,439.4 M161.3,436.5h1.7v1.7h-1.7V436.5z M137.5,440v-2.3h1.2v-0.6 c0.6-0.6,0.6,0.6,0.6,0.6l1.2,0.6l-0.6,1.7H137.5z M501,437.1v1.7c-1.2-0.2-1.1,0-1.7-0.6h-0.6v-0.6h0.6v-0.6L501,437.1z M164.7,437.7h1.7c0.3,0.5,0.7,0.9,1.2,1.2c-0.4,1,0,0.6-0.6,1.2c-0.8,1.4,0.2,0.4-1.2,1.2c-2,0.1-2.3-1-1-3.4L164.7,437.7z M232.7,437.7c2.2,0.7,2.3,1.2,2.3,4c-1,0.4-0.6,0-1.2,0.6c-1-0.4-0.6,0-1.2-0.6c-1.3-0.5-0.8-0.5-1.7-1.2 C231.3,439.5,231.9,438.5,232.7,437.7L232.7,437.7z M395.3,437.7c0.4,0.6,0.4,0.6,0.6,1.7h-1.2L395.3,437.7z M64.3,438.2l2.9,0.6 c1.5,3.2,1.2,5.6-3.5,5.8c-1.2-1.3-1.8-2.9-1.7-4.7C62.8,439.5,63.6,438.9,64.3,438.2 M293.7,438.2l2.9,0.6c1.1,2.3,1.8,4-1.2,5.2 c-1.3,0.7-3,0.5-4-0.6c-0.5-0.6-0.2,0-0.6-1.2c0.6-1.1,1-2.3,1.2-3.5C293.2,438.6,293.1,438.8,293.7,438.2 M503.4,438.2 c1.5,0.8,0.6,0,1.2,1.7H504v-0.6C503.5,438.8,503.8,439.4,503.4,438.2 M256,443.5V440c1-0.7,2.2-1.2,3.5-1.2v1.2 c0.5,0.7,0.4,1,0.6,2.3h-0.6v0.6L256,443.5z M401.2,438.8h3.5c0.9,1.2,1.5,2.6,1.7,4c-1.1,0.6-2,1.4-2.9,2.3c-1-0.4-0.6,0-1.2-0.6 C399.1,443.6,399.9,441,401.2,438.8 M120.7,439.3c1.2,0.2,1.1,0,1.7,0.6c0.6,0.6,0.4,1,0.6,2.3c-0.7,0.3-1.5,0.5-2.3,0.6 C119.7,440.6,119.6,441.4,120.7,439.3 M350.1,439.3c2.6,0.5,2.1,1.7,2.3,1.7c2-0.9,4.2-1.3,6.4-1.2v1.2c0.5,0.9,0.7,1.9,0.6,2.9 c-0.9,0.6-1.9,1-2.9,1.2v0.6c-0.6,0.6-0.6-0.6-0.6-0.6c-2.5-0.6-1.4-2.1-2.9-2.9l-2.9,0.6C348.2,441.7,349.4,440.6,350.1,439.3 M461,442.8H458c-0.3-0.7-0.5-1.5-0.6-2.3c0.9-0.3,1.9-0.5,2.9-0.6C460.7,440.8,460.9,441.8,461,442.8 M238.1,440.9 c1.4,0,2.7,0.2,4,0.6v1.2c0.5,0.9,0.7,1.9,0.6,2.9c-0.8,0.5-1.6,1.1-2.3,1.7C236.4,446.5,236.4,443.9,238.1,440.9 M268.3,442.7 c1.9,0.5,0.9-0.3,1.7,1.2h-0.6v0.6C267.6,443.5,268.3,444.4,268.3,442.7 M272.4,443.8h1.2v1.1h-1.2V443.8z M227,445.6h2.3 c0.3,0.7,0.5,1.5,0.6,2.3c-0.9,0.3-1.9,0.5-2.9,0.6C226.6,447.5,226.6,446.5,227,445.6 M288.6,446.1l3.5,0.6l0.6,1.7 c0.7,1.2,0.3,1.3,0,2.9c-1.1,0.5-2.3,0.9-3.5,1.2C286.6,449.9,286.6,449.2,288.6,446.1 M225.3,448.4c0.8,0.1,1.6,0.3,2.3,0.6 c-0.4,1,0,0.6-0.6,1.2c-0.6,0.6-0.6,0.4-1.7,0.6C225.1,449.3,224.9,449.8,225.3,448.4 M95.2,452.4h2.3c0.3,0.5,0.7,0.9,1.2,1.2 c-0.4,1,0,0.6-0.6,1.2c-0.5,1.3-0.5,0.8-1.2,1.7c-1-0.4-0.6,0-1.2-0.6C94.3,454.8,94.6,454.2,95.2,452.4 M324.6,452.5h2.3 c0.5,0.7,0.9,1.5,1.2,2.3h-0.4l-1.2,1.7c-1-0.4-0.6,0-1.2-0.6c-2.2-1.2-1.3-1.9-0.6-3.5 M434,452.5c1.1,0.4,2.1,1,2.9,1.7v1.2 c-1,0.7-2.2,1.1-3.5,1.2C432.5,453.9,432.6,454.8,434,452.5 M46.6,453.7c2.4,0.6,2.3,1,2.3,4h-1.2c-0.6,0.4-0.5,0.4-1.7,0.6 c-0.7-1-1.2-2.2-1.2-3.5C45.5,454.5,46.1,454.1,46.6,453.7 M276,453.7c2.4,0.6,2.3,1,2.3,4h-1.2c-0.6,0.4-0.6,0.4-1.7,0.6 c-0.7-1-1.2-2.2-1.2-3.5c0.6-0.3,1.2-0.8,1.7-1.3L276,453.7z M162.7,454.2h2.3c-0.1,0.8-0.3,1.6-0.6,2.3c-1-0.4-0.6,0-1.2-0.6 C162.7,455.4,162.9,455.4,162.7,454.2z M385.2,458.3c-1.2-0.2-1.1,0-1.7-0.6c-0.5-0.9-0.7-1.9-0.6-2.9h1.2c0.7-0.5,1-0.4,2.3-0.6 c0.4,1.1,0.6,2.3,0.6,3.5c-0.5,0.6-0.2,0-0.6,1.2c3.4,0,3,0.8,4.7,2.3c-0.4,1,0,0.6-0.6,1.2c-0.8,2.3-1.5,2.4-4.7,2.3l-0.6-1.7 C384.3,461.5,385,460.2,385.2,458.3 M392.2,454.2h2.3c-0.1,0.8-0.3,1.6-0.6,2.3c-1-0.4-0.6,0-1.2-0.6 C392.2,455.4,392.4,455.4,392.2,454.2 M503.2,456.5h-2.3c0.1-0.8,0.3-1.6,0.6-2.3l1.7,0.6V456.5z M202.3,457.6h1.7 c0.7,1,1.2,2.2,1.2,3.5c-0.9,0.3-1.9,0.5-2.9,0.6c-0.5-0.7-0.9-1.5-1.2-2.3h0.6L202.3,457.6 M156.4,458.8c1.6,0,3.1,0.2,4.7,0.6 l0.6,3.5c-1.3,1.2-2.9,1.8-4.7,1.7c-1.6-1-3.4-1.6-5.2-1.7v-2.9h0.6v-0.6C155,459.3,155.2,460,156.4,458.8 M494.9,458.8l3.5,0.6v0.6 h0.6c0,1.9,0.6,1.9,0,2.9c-0.7,2.2-1.2,2.3-4,2.3C493,462.3,493.1,461.5,494.9,458.8 M271.9,461.6h-2.3c0.1-0.8,0.3-1.6,0.6-2.3 c1,0.4,0.6,0,1.2,0.6C271.9,460.5,271.7,460.5,271.9,461.6 M94.2,460.5c0.9,0.4,1.6,1.3,1.7,2.3h-0.6c-0.6,0.4-0.6,0.4-1.7,0.6 C93.3,461.5,93.4,462.1,94.2,460.5L94.2,460.5z M322.4,461h2.3c-0.1,0.8-0.3,1.6-0.6,2.3c-1-0.4-0.6,0-1.2-0.6 C322.4,462.2,322.6,462.2,322.4,461 M431.6,461c0.8,0.3,1.6,0.7,2.3,1.2v0.6h-0.6c-0.8,0.9-0.4,0.6-1.7,1.2v-0.6 C431,462.2,431.3,462.3,431.6,461 M263.8,464l3.5,0.6c2.1,4.7,6.3,3.7,6.4,10.4c-0.5,0.6-0.2,0-0.6,1.2c-1.1,0.4-2,1-2.9,1.7 l-3.5-0.6c-0.6-0.9-2-1.9-2.3-2.9c-0.6-1.7,1.1-3.1,0.6-4l-1.7-0.6C261.2,467.4,262.5,466,263.8,464 M200.5,466.3 c1.8,0.7,1.3,0.2,1.7,2.3h-0.6v0.6c-1-0.4-0.6,0-1.2-0.6C199.8,467.5,200.1,467.6,200.5,466.3 M134.7,472.7c1.8,0,3.5,0.2,5.2,0.6 c1.3,1.9,1.9,4.1,1.7,6.4c-2.2,1.5-2.5,2.7-6.4,2.9c-2.3-2.2-3.5-2.1-3.5-7c0.4-0.6,0.2,0,0.6-1.2 C133.2,473.9,134,473.4,134.7,472.7 M447.1,473.2h2.3c0.7,1,1.2,2.2,1.2,3.5c-1,0.7-2.2,1.2-3.5,1.2 C446,475.7,446,475.4,447.1,473.2z M430.9,485.4c4,0,7.6,0.8,8.7,3.5c1,1.6,1.4,3.4,1.2,5.2c-0.1,2.4-1.7,4.5-4,5.2 c-2.1,0.7-4.2,0.9-6.4,0.6c-1.1-1.5-2.1-1.5-2.9-3.5c-1.1-1.9-1.5-4.2-1.2-6.4c0.8-1,1.2-2.8,2.3-3.5 C429.7,485.8,430,486.5,430.9,485.4L430.9,485.4z M262,491.2h2.3c0.9,1.4,1.3,1.3,1.7,3.5c-1.5,1.5-1.1,2-4,2.3 C260.1,494.2,260.2,494,262,491.2" style="fill: rgb(229, 229, 229);"/></g></svg>