<svg xmlns="http://www.w3.org/2000/svg" xmlns:xlink="http://www.w3.org/1999/xlink" data-name="Layer 1" preserveAspectRatio="xMidYMid meet" version="1.0" viewBox="24.3 41.8 463.5 410.2" zoomAndPan="magnify" style="fill: rgb(255, 255, 255);" original_string_length="1663"><g id="__id0_s7gvqzjpof"><path d="M419.83,127.86A231.69,231.69,0,0,0,24.31,291.69v86.5a25.66,25.66,0,0,0,25.63,25.63h7.62c8.44,28,41.79,48.18,71,48.18H151.8a20.47,20.47,0,0,0,20.45-20.45V273.77a20.47,20.47,0,0,0-20.45-20.45H128.6c-19.54,0-40.92,9-55.47,23.36,4.44-88.93,84.77-160,182.87-160s178.43,71.1,182.87,160c-14.55-14.33-35.93-23.36-55.47-23.36H360.2a20.47,20.47,0,0,0-20.45,20.45V431.55A20.47,20.47,0,0,0,360.2,452H383.4c29.24,0,62.59-20.21,71-48.18h7.62a25.66,25.66,0,0,0,25.63-25.63v-86.5A230.17,230.17,0,0,0,419.83,127.86ZM41.7,378.19V327.13a8.26,8.26,0,0,1,8.25-8.25h5.6v67.55h-5.6A8.26,8.26,0,0,1,41.7,378.19ZM154.87,273.77V431.55a3.07,3.07,0,0,1-3.07,3.07H137.29V270.7H151.8A3.07,3.07,0,0,1,154.87,273.77Zm-35-2.3V433.85c-22.92-3.92-47-22.41-47-43.58V315.05C72.92,293.88,97,275.39,119.91,271.47ZM397.48,153.26c-37.83-34.81-88.08-54-141.48-54s-103.66,19.17-141.48,54c-38,35-59,81.59-59,131.19v17.06h-5.6a25.51,25.51,0,0,0-8.25,1.37V291.69c0-118.17,96.14-214.3,214.3-214.3s214.3,96.14,214.3,214.3v11.19a25.51,25.51,0,0,0-8.25-1.37h-5.6V284.45C456.46,234.85,435.51,188.26,397.48,153.26ZM357.13,431.55V273.77a3.07,3.07,0,0,1,3.07-3.07h14.51V434.62H360.2A3.07,3.07,0,0,1,357.13,431.55Zm35,2.3V271.47c22.92,3.92,47,22.41,47,43.58v75.22C439.08,411.44,415,429.93,392.09,433.85Zm78.21-55.67a8.26,8.26,0,0,1-8.25,8.25h-5.6V318.89h5.6a8.26,8.26,0,0,1,8.25,8.25v51.05Z" style="fill: inherit;"/></g></svg>